<svg xmlns="http://www.w3.org/2000/svg" fill="none" viewBox="0 0 524 198"><path fill="currentcolor" d="M245.775 41.167 218.424 114.1c-9.715-24.273-19.387-48.566-28.863-72.933h-31.003l44.431 111.854L184.224 198h30.107l61.992-156.833zM110.783 65.43c12.011 0 17.842 7.208 17.842 22.028v67.823h28.636V84.248c0-27.057-18.604-45.956-45.234-45.956-12.813 0-24.556 4.494-33.049 12.653l-.348.334-.347-.334C69.79 42.785 58.1 38.292 45.34 38.292 18.644 38.292 0 57.191 0 84.248v71.033h28.635V87.458c0-14.82 5.832-22.028 17.842-22.028 12.011 0 17.842 7.208 17.842 22.028v67.823h28.636V87.458c0-14.82 5.831-22.028 17.842-22.028zm396.684-8.68c-10.78-11.918-25.974-18.485-42.773-18.485-11.944 0-24.061 3.932-33.156 10.834V0h-28.649v98.305c0 15.715 5.618 30.427 15.809 41.422 11.155 12.05 26.482 18.417 44.338 18.417 17.855 0 33.116-6.367 44.257-18.417 10.178-11.008 15.795-25.72 15.795-41.422s-5.55-30.428-15.621-41.57zm-44.445 74.229c-20.423 0-31.511-16.838-31.511-32.674s11.088-32.889 31.511-32.889 31.431 16.946 31.431 32.889-11.021 32.674-31.431 32.674m-130.015 27.205c38.971 0 60.006-30.914 60.006-60.007-.013-29.08-21.035-59.993-60.006-59.993C294.022 38.184 273 69.097 273 98.19s21.022 60.007 60.007 60.007zm.026-27.205c-20.407 0-31.486-16.856-31.486-32.708s11.079-32.922 31.486-32.922c20.408 0 31.407 16.963 31.407 32.922s-11.012 32.708-31.407 32.708"></path></svg>